<svg width="538" height="335" viewBox="0 0 538 335" fill="none" xmlns="http://www.w3.org/2000/svg">
<rect width="538" height="335" fill="white"/>
<line x1="102.623" y1="85.218" x2="235.623" y2="191.218" stroke="black" stroke-width="2"/>
<line x1="275.623" y1="180.218" x2="408.623" y2="286.218" stroke="black" stroke-width="2"/>
<path d="M167.5 79.5C167.5 88.9811 159.775 97.9684 146.362 104.675C133.039 111.336 114.528 115.5 94 115.5C73.4717 115.5 54.961 111.336 41.6378 104.675C28.2249 97.9684 20.5 88.9811 20.5 79.5C20.5 70.0189 28.2249 61.0316 41.6378 54.3251C54.961 47.6636 73.4717 43.5 94 43.5C114.528 43.5 133.039 47.6636 146.362 54.3251C159.775 61.0316 167.5 70.0189 167.5 79.5Z" fill="white" stroke="black" stroke-width="3"/>
<path d="M385.108 311.873L349.154 277L385.108 242.127H458.892L494.846 277L458.892 311.873H385.108Z" fill="white" stroke="black" stroke-width="3"/>
<rect x="180.5" y="148.5" width="147" height="72" fill="white" stroke="#1E1E1E" stroke-width="3"/>
</svg>
